<svg width="0" height="0" class="hidden">
  <symbol fill="none" xmlns="http://www.w3.org/2000/svg" viewBox="0 0 214 24" id="logo">
    <path d="M5.914 18.216C5.23 18.216 4.564 18.15 3.916 18.018C3.28 17.898 2.698 17.73 2.17 17.514C1.654 17.298 1.216 17.064 0.856 16.812L2.044 14.562C2.44 14.838 2.86 15.078 3.304 15.282C3.76 15.474 4.234 15.624 4.726 15.732C5.218 15.828 5.71 15.876 6.202 15.876C6.742 15.876 7.204 15.816 7.588 15.696C7.984 15.576 8.284 15.408 8.488 15.192C8.704 14.976 8.812 14.712 8.812 14.4C8.812 14.112 8.698 13.878 8.47 13.698C8.242 13.518 7.942 13.368 7.57 13.248C7.21 13.116 6.808 12.99 6.364 12.87C5.92 12.75 5.47 12.612 5.014 12.456C4.57 12.288 4.162 12.084 3.79 11.844C3.43 11.592 3.136 11.274 2.908 10.89C2.68 10.506 2.566 10.026 2.566 9.45C2.566 8.586 2.8 7.836 3.268 7.2C3.748 6.564 4.42 6.072 5.284 5.724C6.148 5.364 7.162 5.184 8.326 5.184C9.178 5.184 9.982 5.28 10.738 5.472C11.494 5.652 12.142 5.916 12.682 6.264L11.584 8.496C11.104 8.172 10.57 7.932 9.982 7.776C9.394 7.608 8.788 7.524 8.164 7.524C7.6 7.524 7.114 7.59 6.706 7.722C6.31 7.854 6.004 8.04 5.788 8.28C5.584 8.508 5.482 8.772 5.482 9.072C5.482 9.372 5.59 9.618 5.806 9.81C6.034 9.99 6.334 10.146 6.706 10.278C7.078 10.398 7.486 10.518 7.93 10.638C8.374 10.758 8.818 10.896 9.262 11.052C9.706 11.208 10.114 11.406 10.486 11.646C10.858 11.886 11.158 12.192 11.386 12.564C11.614 12.924 11.728 13.38 11.728 13.932C11.728 14.796 11.488 15.552 11.008 16.2C10.528 16.836 9.85 17.334 8.974 17.694C8.11 18.042 7.09 18.216 5.914 18.216ZM12.4605 18L14.9805 5.4H17.9145L15.3945 18H12.4605ZM17.8268 18L20.3468 5.4H22.7228L26.3048 14.328L25.0448 14.31L32.0288 5.4H34.5308L32.0288 18H29.2928L30.9668 9.558H31.5248L25.9628 16.668H24.6668L21.6968 9.54L22.2368 9.594L20.5628 18H17.8268ZM34.4782 18L36.9982 5.4H42.0922C43.6642 5.4 44.8762 5.748 45.7282 6.444C46.5922 7.128 47.0242 8.088 47.0242 9.324C47.0242 10.38 46.7782 11.304 46.2862 12.096C45.7942 12.876 45.0862 13.476 44.1622 13.896C43.2502 14.316 42.1642 14.526 40.9042 14.526H36.8182L38.3662 13.194L37.4122 18H34.4782ZM38.2942 13.536L37.2682 12.15H41.0302C41.9902 12.15 42.7342 11.934 43.2622 11.502C43.8022 11.058 44.0722 10.416 44.0722 9.576C44.0722 8.964 43.8682 8.514 43.4602 8.226C43.0522 7.926 42.4762 7.776 41.7322 7.776H38.1862L39.7342 6.354L38.2942 13.536ZM46.946 18L49.466 5.4H52.4L50.348 15.624H56.666L56.18 18H46.946ZM59.1005 18L60.1265 12.816L60.4505 14.652L56.7425 5.4H59.6585L62.4845 12.474L60.7205 12.492L66.4265 5.4H69.4325L62.0525 14.67L63.0425 12.816L62.0165 18H59.1005ZM79.1522 18.216C78.1802 18.216 77.2742 18.06 76.4342 17.748C75.6062 17.424 74.8862 16.968 74.2742 16.38C73.6622 15.792 73.1822 15.102 72.8342 14.31C72.4982 13.518 72.3302 12.648 72.3302 11.7C72.3302 10.752 72.4982 9.882 72.8342 9.09C73.1822 8.298 73.6622 7.608 74.2742 7.02C74.8982 6.432 75.6242 5.982 76.4522 5.67C77.2802 5.346 78.1862 5.184 79.1702 5.184C80.2622 5.184 81.2462 5.376 82.1222 5.76C83.0102 6.132 83.7542 6.684 84.3542 7.416L82.4822 9.144C82.0502 8.652 81.5702 8.286 81.0422 8.046C80.5142 7.794 79.9382 7.668 79.3142 7.668C78.7262 7.668 78.1862 7.764 77.6942 7.956C77.2022 8.148 76.7762 8.424 76.4162 8.784C76.0562 9.144 75.7742 9.57 75.5702 10.062C75.3782 10.554 75.2822 11.1 75.2822 11.7C75.2822 12.3 75.3782 12.846 75.5702 13.338C75.7742 13.83 76.0562 14.256 76.4162 14.616C76.7762 14.976 77.2022 15.252 77.6942 15.444C78.1862 15.636 78.7262 15.732 79.3142 15.732C79.9382 15.732 80.5142 15.612 81.0422 15.372C81.5702 15.12 82.0502 14.742 82.4822 14.238L84.3542 15.966C83.7542 16.698 83.0102 17.256 82.1222 17.64C81.2462 18.024 80.2562 18.216 79.1522 18.216ZM94.4234 5.4H97.3394V18H94.4234V5.4ZM88.6994 18H85.7834V5.4H88.6994V18ZM94.6394 12.834H88.4834V10.368H94.6394V12.834ZM105.9 18.216C104.904 18.216 103.98 18.054 103.128 17.73C102.288 17.406 101.556 16.95 100.932 16.362C100.32 15.774 99.8405 15.084 99.4925 14.292C99.1565 13.5 98.9885 12.636 98.9885 11.7C98.9885 10.764 99.1565 9.9 99.4925 9.108C99.8405 8.316 100.326 7.626 100.95 7.038C101.574 6.45 102.306 5.994 103.146 5.67C103.986 5.346 104.898 5.184 105.882 5.184C106.878 5.184 107.79 5.346 108.618 5.67C109.458 5.994 110.184 6.45 110.796 7.038C111.42 7.626 111.906 8.316 112.254 9.108C112.602 9.888 112.776 10.752 112.776 11.7C112.776 12.636 112.602 13.506 112.254 14.31C111.906 15.102 111.42 15.792 110.796 16.38C110.184 16.956 109.458 17.406 108.618 17.73C107.79 18.054 106.884 18.216 105.9 18.216ZM105.882 15.732C106.446 15.732 106.962 15.636 107.43 15.444C107.91 15.252 108.33 14.976 108.69 14.616C109.05 14.256 109.326 13.83 109.518 13.338C109.722 12.846 109.824 12.3 109.824 11.7C109.824 11.1 109.722 10.554 109.518 10.062C109.326 9.57 109.05 9.144 108.69 8.784C108.342 8.424 107.928 8.148 107.448 7.956C106.968 7.764 106.446 7.668 105.882 7.668C105.318 7.668 104.796 7.764 104.316 7.956C103.848 8.148 103.434 8.424 103.074 8.784C102.714 9.144 102.432 9.57 102.228 10.062C102.036 10.554 101.94 11.1 101.94 11.7C101.94 12.288 102.036 12.834 102.228 13.338C102.432 13.83 102.708 14.256 103.056 14.616C103.416 14.976 103.836 15.252 104.316 15.444C104.796 15.636 105.318 15.732 105.882 15.732ZM120.458 18.216C119.486 18.216 118.58 18.06 117.74 17.748C116.912 17.424 116.192 16.968 115.58 16.38C114.968 15.792 114.488 15.102 114.14 14.31C113.804 13.518 113.636 12.648 113.636 11.7C113.636 10.752 113.804 9.882 114.14 9.09C114.488 8.298 114.968 7.608 115.58 7.02C116.204 6.432 116.93 5.982 117.758 5.67C118.586 5.346 119.492 5.184 120.476 5.184C121.568 5.184 122.552 5.376 123.428 5.76C124.316 6.132 125.06 6.684 125.66 7.416L123.788 9.144C123.356 8.652 122.876 8.286 122.348 8.046C121.82 7.794 121.244 7.668 120.62 7.668C120.032 7.668 119.492 7.764 119 7.956C118.508 8.148 118.082 8.424 117.722 8.784C117.362 9.144 117.08 9.57 116.876 10.062C116.684 10.554 116.588 11.1 116.588 11.7C116.588 12.3 116.684 12.846 116.876 13.338C117.08 13.83 117.362 14.256 117.722 14.616C118.082 14.976 118.508 15.252 119 15.444C119.492 15.636 120.032 15.732 120.62 15.732C121.244 15.732 121.82 15.612 122.348 15.372C122.876 15.12 123.356 14.742 123.788 14.238L125.66 15.966C125.06 16.698 124.316 17.256 123.428 17.64C122.552 18.024 121.562 18.216 120.458 18.216ZM132.945 18.216C131.949 18.216 131.025 18.054 130.173 17.73C129.333 17.406 128.601 16.95 127.977 16.362C127.365 15.774 126.885 15.084 126.537 14.292C126.201 13.5 126.033 12.636 126.033 11.7C126.033 10.764 126.201 9.9 126.537 9.108C126.885 8.316 127.371 7.626 127.995 7.038C128.619 6.45 129.351 5.994 130.191 5.67C131.031 5.346 131.943 5.184 132.927 5.184C133.923 5.184 134.835 5.346 135.663 5.67C136.503 5.994 137.229 6.45 137.841 7.038C138.465 7.626 138.951 8.316 139.299 9.108C139.647 9.888 139.821 10.752 139.821 11.7C139.821 12.636 139.647 13.506 139.299 14.31C138.951 15.102 138.465 15.792 137.841 16.38C137.229 16.956 136.503 17.406 135.663 17.73C134.835 18.054 133.929 18.216 132.945 18.216ZM132.927 15.732C133.491 15.732 134.007 15.636 134.475 15.444C134.955 15.252 135.375 14.976 135.735 14.616C136.095 14.256 136.371 13.83 136.563 13.338C136.767 12.846 136.869 12.3 136.869 11.7C136.869 11.1 136.767 10.554 136.563 10.062C136.371 9.57 136.095 9.144 135.735 8.784C135.387 8.424 134.973 8.148 134.493 7.956C134.013 7.764 133.491 7.668 132.927 7.668C132.363 7.668 131.841 7.764 131.361 7.956C130.893 8.148 130.479 8.424 130.119 8.784C129.759 9.144 129.477 9.57 129.273 10.062C129.081 10.554 128.985 11.1 128.985 11.7C128.985 12.288 129.081 12.834 129.273 13.338C129.477 13.83 129.753 14.256 130.101 14.616C130.461 14.976 130.881 15.252 131.361 15.444C131.841 15.636 132.363 15.732 132.927 15.732ZM141.473 18V5.4H144.389V15.624H150.707V18H141.473ZM150.211 18L155.827 5.4H158.707L164.341 18H161.281L156.673 6.876H157.825L153.199 18H150.211ZM153.019 15.3L153.793 13.086H160.273L161.065 15.3H153.019ZM167.085 18V7.776H163.053V5.4H174.033V7.776H170.001V18H167.085ZM177.744 10.476H183.81V12.744H177.744V10.476ZM177.96 15.66H184.818V18H175.062V5.4H184.584V7.74H177.96V15.66Z" fill="#111111"></path>
    <path d="M192.958 15.0568L201.041 1.9886L201.521 1.48303L207.697 5.6014L207.74 8.08665L209.247 10.5463L202.587 21.1038L192.958 15.0568Z" fill="#FCF1E0"></path>
    <path d="M206.226 17.9097L195.587 11.2616M198.521 6.44905L209.16 13.0971M197.972 19.3982L206.774 4.96051M210.382 11.0919C208.102 9.6673 207.207 8.55395 208.674 6.14767L201.455 1.63647L192.653 16.0742L203.292 22.7223L210.382 11.0919Z" stroke="#FD9222" stroke-width="2" stroke-linecap="round" stroke-linejoin="round"></path>
  </symbol>

  <symbol version="1.1" id="instagram" xmlns="http://www.w3.org/2000/svg" xmlns:xlink="http://www.w3.org/1999/xlink" x="0px" y="0px" xml:space="preserve" viewBox="0 0 24 24">
    <path d="M12,7c-2.8,0-5,2.2-5,5s2.2,5,5,5s5-2.2,5-5S14.8,7,12,7z M12,15c-1.7,0-3-1.3-3-3s1.3-3,3-3s3,1.3,3,3S13.7,15,12,15z
	 M18.5,6.5c0,0.5-0.5,1-1,1c-0.6,0-1-0.4-1-1c0-0.5,0.5-1,1-1C18.1,5.5,18.5,5.9,18.5,6.5z M17,1H7C3.7,1,1,3.7,1,7v10
	  c0,3.3,2.7,6,6,6h10c3.3,0,6-2.7,6-6V7C23,3.7,20.3,1,17,1z M21,17c0,2.2-1.8,4-4,4H7c-2.2,0-4-1.8-4-4V7c0-2.2,1.8-4,4-4h10
	  c2.2,0,4,1.8,4,4V17z"></path>
  </symbol>
  <symbol version="1.1" id="twitter" xmlns="http://www.w3.org/2000/svg" xmlns:xlink="http://www.w3.org/1999/xlink" x="0px" y="0px" xml:space="preserve" viewBox="0 0 24 24">
    <path d="M8.3,21.9c-2.6,0-5.3-0.7-7.7-2.1c-0.4-0.2-0.6-0.7-0.5-1.1C0.2,18.3,0.6,18,1,18c1.7,0.1,3.4-0.3,4.9-1
	  C-1.7,12.3,1.5,3,1.6,2.9C1.7,2.6,2,2.3,2.4,2.3c0.4,0,0.7,0.1,1,0.4C4.2,4,6,5.8,7.4,6.5c1.1,0.6,2.4,0.9,3.6,1
	  c0-1.1,0.3-2.2,0.9-3.1c0.6-0.9,1.5-1.6,2.6-2c1.1-0.4,2.2-0.5,3.3-0.2c0.9,0.2,1.7,0.6,2.3,1.2c0.8-0.3,1.6-0.7,2.3-1.2
	  c0.3-0.2,0.8-0.2,1.1,0c0.3,0.2,0.5,0.7,0.4,1.1c-0.3,1.4-1,2.7-2,3.8c0,0.2,0,0.3,0,0.5c0,5.5-2.4,10.1-6.7,12.5
	  C13.2,21.3,10.8,21.9,8.3,21.9z M5,19.5c3.2,0.8,6.6,0.4,9.4-1.2c3.6-2.1,5.7-6.1,5.7-10.8c0-0.2,0-0.4-0.1-0.6
	  c-0.1-0.3,0-0.7,0.3-0.9c0.2-0.2,0.4-0.5,0.6-0.7c-0.2,0.1-0.5,0.2-0.7,0.2c-0.4,0.1-0.8,0-1-0.3c-0.5-0.5-1.1-0.9-1.8-1.1
	  c-0.7-0.2-1.4-0.1-2.1,0.1c-0.7,0.3-1.2,0.7-1.6,1.3c-0.4,0.6-0.6,1.3-0.6,2v1c0,0.5-0.4,1-1,1c-1.9,0.1-3.8-0.4-5.5-1.2
	  C5.3,7.7,4,6.6,3,5.5c-0.5,2.8-0.4,8,5.4,10.6C8.7,16.2,9,16.5,9,16.9s-0.1,0.7-0.4,0.9C7.4,18.6,6.2,19.2,5,19.5z"></path>
  </symbol>

  <symbol  xmlns="http://www.w3.org/2000/svg" viewBox="0 0 14 8" id="scroll-down">
    <path d="M7.65076 5.28338C7.56554 5.3693 7.46415 5.43749 7.35245 5.48403C7.24075 5.53057 7.12093 5.55453 6.99992 5.55453C6.87891 5.55453 6.7591 5.53057 6.64739 5.48403C6.53569 5.43749 6.4343 5.3693 6.34909 5.28338L2.15075 1.07588C2.06553 0.989962 1.96415 0.921767 1.85244 0.875229C1.74074 0.828691 1.62092 0.804731 1.49991 0.804731C1.3789 0.804731 1.25909 0.828691 1.14738 0.875229C1.03568 0.921767 0.934296 0.989962 0.84908 1.07588C0.678349 1.24763 0.58252 1.47996 0.58252 1.72213C0.58252 1.9643 0.678349 2.19663 0.84908 2.36838L5.05659 6.57588C5.57221 7.09087 6.27117 7.38013 6.99992 7.38013C7.72867 7.38013 8.42763 7.09087 8.94326 6.57588L13.1508 2.36838C13.3201 2.19764 13.4156 1.96719 13.4166 1.72671C13.4173 1.60607 13.3942 1.48648 13.3486 1.3748C13.3029 1.26311 13.2357 1.16153 13.1508 1.07588C13.0655 0.989962 12.9642 0.921767 12.8525 0.875229C12.7408 0.828691 12.6209 0.804731 12.4999 0.804731C12.3789 0.804731 12.2591 0.828691 12.1474 0.875229C12.0357 0.921767 11.9343 0.989962 11.8491 1.07588L7.65076 5.28338Z"></path>
  </symbol>

  <symbol fill="none" xmlns="http://www.w3.org/2000/svg" viewBox="0 0 32 32" id="taste">
    <path d="M13.822 2.41301L21.349 9.94901L21.429 9.86901C21.5867 9.71469 21.7978 9.6272 22.0184 9.62477C22.239 9.62235 22.452 9.70519 22.613 9.85601L22.619 9.86201L23.486 10.729C23.791 11.034 23.801 11.499 23.569 11.823L23.565 11.83L23.422 12.022L29.582 18.182C30.132 18.732 30.132 19.612 29.582 20.162L20.152 29.592C19.602 30.142 18.722 30.142 18.172 29.592L13.725 25.145C13.6512 25.2381 13.5584 25.3145 13.4529 25.3692C13.3474 25.4239 13.2316 25.4556 13.1129 25.4623C12.9943 25.469 12.8756 25.4505 12.7646 25.4081C12.6536 25.3656 12.5529 25.3002 12.469 25.216L9.86901 22.616C9.71469 22.4584 9.6272 22.2472 9.62477 22.0266C9.62235 21.806 9.70519 21.593 9.85601 21.432L9.86201 21.425L9.93901 21.349L2.41201 13.822C1.86201 13.272 1.86201 12.392 2.41201 11.842L11.842 2.41201C12.392 1.86201 13.272 1.86201 13.822 2.41201V2.41301ZM20.404 10.893L18.648 9.13801C18.5928 9.0811 18.5268 9.03585 18.4538 9.00495C18.3808 8.97405 18.3023 8.95813 18.223 8.95813C18.1437 8.95813 18.0653 8.97405 17.9923 9.00495C17.9193 9.03585 17.8532 9.0811 17.798 9.13801L14.218 12.718C14.1613 12.7743 14.1163 12.8413 14.0856 12.9151C14.0548 12.9889 14.039 13.0681 14.039 13.148C14.039 13.2279 14.0548 13.3071 14.0856 13.3809C14.1163 13.4547 14.1613 13.5217 14.218 13.578L15.967 15.327L16.577 14.717L15.012 13.152L18.222 9.93201L19.791 11.506L20.404 10.893ZM15.328 15.965L13.574 14.211C13.5188 14.1541 13.4528 14.1088 13.3798 14.0779C13.3068 14.047 13.2283 14.0311 13.149 14.0311C13.0697 14.0311 12.9913 14.047 12.9183 14.0779C12.8453 14.1088 12.7792 14.1541 12.724 14.211L9.14401 17.791L9.13901 17.796L9.13401 17.801C8.89401 18.031 8.89401 18.411 9.13401 18.651L10.886 20.403L11.502 19.787L9.93201 18.223L13.152 15.013L14.716 16.576L15.328 15.965ZM8.82201 8.19301L12.402 11.773C12.642 12.013 13.022 12.013 13.252 11.763L16.832 8.18301C16.8889 8.12884 16.9342 8.06368 16.9651 7.99148C16.9961 7.91929 17.012 7.84156 17.012 7.76301H17.022C17.022 7.61301 16.962 7.45301 16.842 7.33301L13.262 3.75301C13.2058 3.69617 13.1388 3.65105 13.065 3.62025C12.9912 3.58946 12.912 3.5736 12.832 3.5736C12.752 3.5736 12.6729 3.58946 12.599 3.62025C12.5252 3.65105 12.4583 3.69617 12.402 3.75301L8.82201 7.34301C8.58201 7.57301 8.58201 7.95301 8.82201 8.19301ZM3.75201 13.263L7.33201 16.843C7.57201 17.083 7.95201 17.083 8.18201 16.843L11.762 13.263C11.8201 13.2077 11.8661 13.1409 11.8971 13.0669C11.9281 12.9929 11.9434 12.9132 11.942 12.833H11.952C11.952 12.673 11.892 12.523 11.772 12.403L8.19201 8.82301C8.13683 8.7661 8.07077 8.72085 7.99776 8.68995C7.92476 8.65905 7.84629 8.64313 7.76701 8.64313C7.68774 8.64313 7.60927 8.65905 7.53626 8.68995C7.46326 8.72085 7.3972 8.7661 7.34201 8.82301L3.75201 12.413C3.51201 12.643 3.51201 13.023 3.75201 13.263ZM10.685 22.017L13.047 24.38L22.683 11.34L22.028 10.685L10.685 22.017Z" fill="black"></path>
    <path d="M13.822 2.41301L21.349 9.94901L21.429 9.86901C21.5867 9.71469 21.7978 9.6272 22.0184 9.62477C22.239 9.62235 22.452 9.70519 22.613 9.85601L22.619 9.86201L23.486 10.729C23.791 11.034 23.801 11.499 23.569 11.823L23.565 11.83L23.422 12.022L29.582 18.182C30.132 18.732 30.132 19.612 29.582 20.162L20.152 29.592C19.602 30.142 18.722 30.142 18.172 29.592L13.725 25.145C13.6512 25.2381 13.5584 25.3145 13.4529 25.3692C13.3474 25.4239 13.2316 25.4556 13.1129 25.4623C12.9943 25.469 12.8756 25.4505 12.7646 25.4081C12.6536 25.3656 12.5529 25.3002 12.469 25.216L9.86901 22.616C9.71469 22.4584 9.6272 22.2472 9.62477 22.0266C9.62235 21.806 9.70519 21.593 9.85601 21.432L9.86201 21.425L9.93901 21.349L2.41201 13.822C1.86201 13.272 1.86201 12.392 2.41201 11.842L11.842 2.41201C12.392 1.86201 13.272 1.86201 13.822 2.41201V2.41301ZM20.404 10.893L18.648 9.13801C18.5928 9.0811 18.5268 9.03585 18.4538 9.00495C18.3808 8.97405 18.3023 8.95813 18.223 8.95813C18.1437 8.95813 18.0653 8.97405 17.9923 9.00495C17.9193 9.03585 17.8532 9.0811 17.798 9.13801L14.218 12.718C14.1613 12.7743 14.1163 12.8413 14.0856 12.9151C14.0548 12.9889 14.039 13.0681 14.039 13.148C14.039 13.2279 14.0548 13.3071 14.0856 13.3809C14.1163 13.4547 14.1613 13.5217 14.218 13.578L15.967 15.327L16.577 14.717L15.012 13.152L18.222 9.93201L19.791 11.506L20.404 10.893ZM15.328 15.965L13.574 14.211C13.5188 14.1541 13.4528 14.1088 13.3798 14.0779C13.3068 14.047 13.2283 14.0311 13.149 14.0311C13.0697 14.0311 12.9913 14.047 12.9183 14.0779C12.8453 14.1088 12.7792 14.1541 12.724 14.211L9.14401 17.791L9.13901 17.796L9.13401 17.801C8.89401 18.031 8.89401 18.411 9.13401 18.651L10.886 20.403L11.502 19.787L9.93201 18.223L13.152 15.013L14.716 16.576L15.328 15.965ZM8.82201 8.19301L12.402 11.773C12.642 12.013 13.022 12.013 13.252 11.763L16.832 8.18301C16.8889 8.12884 16.9342 8.06368 16.9651 7.99148C16.9961 7.91929 17.012 7.84156 17.012 7.76301H17.022C17.022 7.61301 16.962 7.45301 16.842 7.33301L13.262 3.75301C13.2058 3.69617 13.1388 3.65105 13.065 3.62025C12.9912 3.58946 12.912 3.5736 12.832 3.5736C12.752 3.5736 12.6729 3.58946 12.599 3.62025C12.5252 3.65105 12.4583 3.69617 12.402 3.75301L8.82201 7.34301C8.58201 7.57301 8.58201 7.95301 8.82201 8.19301ZM3.75201 13.263L7.33201 16.843C7.57201 17.083 7.95201 17.083 8.18201 16.843L11.762 13.263C11.8201 13.2077 11.8661 13.1409 11.8971 13.0669C11.9281 12.9929 11.9434 12.9132 11.942 12.833H11.952C11.952 12.673 11.892 12.523 11.772 12.403L8.19201 8.82301C8.13683 8.7661 8.07077 8.72085 7.99776 8.68995C7.92476 8.65905 7.84629 8.64313 7.76701 8.64313C7.68774 8.64313 7.60927 8.65905 7.53626 8.68995C7.46326 8.72085 7.3972 8.7661 7.34201 8.82301L3.75201 12.413C3.51201 12.643 3.51201 13.023 3.75201 13.263ZM10.685 22.017L13.047 24.38L22.683 11.34L22.028 10.685L10.685 22.017Z" fill="#FD9222"></path>
  </symbol>
  <symbol fill="none" xmlns="http://www.w3.org/2000/svg" viewBox="0 0 32 32" id="price">
    <path d="M16.0001 2.66675C8.66675 2.66675 2.66675 8.66675 2.66675 16.0001C2.66675 23.3334 8.66675 29.3334 16.0001 29.3334C23.3334 29.3334 29.3334 23.3334 29.3334 16.0001C29.3334 8.66675 23.3334 2.66675 16.0001 2.66675ZM16.0001 26.6667C10.1334 26.6667 5.33341 21.8667 5.33341 16.0001C5.33341 10.1334 10.1334 5.33341 16.0001 5.33341C21.8667 5.33341 26.6667 10.1334 26.6667 16.0001C26.6667 21.8667 21.8667 26.6667 16.0001 26.6667Z" fill="#FD9222"></path>
    <path d="M17.7335 14.6667H14.2668C13.6001 14.6667 13.0668 14.1333 13.0668 13.4667C13.0668 12.8 13.6001 12.2667 14.2668 12.2667H19.2001C20.0001 12.2667 20.5335 11.7333 20.5335 10.9333C20.5335 10.1333 20.0001 9.59998 19.2001 9.59998H17.3335V8.39998C17.3335 7.59998 16.8001 7.06665 16.0001 7.06665C15.2001 7.06665 14.6668 7.59998 14.6668 8.39998V9.59998H14.2668C12.1335 9.59998 10.4001 11.3333 10.4001 13.4667C10.4001 15.6 12.1335 17.3333 14.2668 17.3333H17.6001C18.2668 17.3333 18.8001 17.8666 18.8001 18.5333C18.8001 19.2 18.2668 19.7333 17.6001 19.7333H12.6668C11.8668 19.7333 11.3335 20.2667 11.3335 21.0667C11.3335 21.8667 11.8668 22.4 12.6668 22.4H14.6668V23.6C14.6668 24.4 15.2001 24.9333 16.0001 24.9333C16.8001 24.9333 17.3335 24.4 17.3335 23.6V22.4H17.7335C19.8668 22.4 21.6001 20.6667 21.6001 18.5333C21.6001 16.4 19.8668 14.6667 17.7335 14.6667Z" fill="#FD9222"></path>
  </symbol>
  <symbol fill="none" xmlns="http://www.w3.org/2000/svg" viewBox="0 0 32 32" id="production">
    <path d="M15.4516 14.106C14.669 13.156 14.2751 11.99 14.2751 10.8241C14.2751 6.50028 19.4561 2.18188 24.6372 2.18188C27.4976 2.18188 29.8183 4.50302 29.8183 7.36396C29.8183 12.546 25.5007 17.7281 21.1724 17.7281C20.0066 17.7281 18.8409 17.334 17.891 16.5513L5.13266 29.3122C4.45804 29.9869 3.36246 29.9869 2.68785 29.3122C2.01323 28.6374 2.01323 27.5416 2.68785 26.8669L15.4516 14.106Z" fill="#FD9222"></path>
  </symbol>

  <symbol version="1.1" id="play" xmlns="http://www.w3.org/2000/svg" xmlns:xlink="http://www.w3.org/1999/xlink" x="0px" y="0px" xml:space="preserve" viewBox="0 0 44 44">
    <path d="M15,33V12l20,10.5L15,33z M22,0C9.9,0,0,9.9,0,22s9.8,22,22,22c12.1,0,22-9.8,22-22S34.1,0,22,0z M22,43
	C10.4,43,1,33.6,1,22C1,10.4,10.4,1,22,1c11.6,0,21,9.4,21,21C43,33.6,33.6,43,22,43z"></path>
  </symbol>

  <symbol fill="none" xmlns="http://www.w3.org/2000/svg" viewBox="0 0 28 28" id="x-close">
    <path d="M21 7L7 21" stroke-width="2" stroke-linecap="round" stroke-linejoin="round"></path>
    <path d="M7 7L21 21" stroke-width="2" stroke-linecap="round" stroke-linejoin="round"></path>
  </symbol>
</svg>