<?xml version="1.0" standalone="no"?>
<!DOCTYPE svg PUBLIC "-//W3C//DTD SVG 20010904//EN"
 "http://www.w3.org/TR/2001/REC-SVG-20010904/DTD/svg10.dtd">
<svg version="1.0" xmlns="http://www.w3.org/2000/svg"
 width="700.000000pt" height="700.000000pt" viewBox="0 0 700.000000 700.000000"
 preserveAspectRatio="xMidYMid meet">
<metadata>
Created by potrace 1.14, written by Peter Selinger 2001-2017
</metadata>
<g transform="translate(0.000000,700.000000) scale(0.100000,-0.100000)"
fill="#000000" stroke="none">
<path d="M3446 6862 c-34 -4 -116 -53 -161 -96 -29 -28 -208 -313 -1122 -1781
-133 -214 -247 -395 -253 -402 -5 -7 -10 -14 -10 -16 0 -2 -66 -109 -146 -238
-174 -278 -258 -417 -267 -443 -8 -19 -115 -201 -172 -291 -18 -27 -77 -124
-132 -215 -55 -91 -195 -322 -312 -513 -116 -191 -219 -367 -228 -390 -41 -99
-12 -241 62 -305 27 -24 319 -212 423 -273 34 -20 629 -390 697 -434 64 -41
518 -323 633 -393 48 -30 103 -64 122 -77 19 -12 175 -109 345 -215 171 -105
326 -202 345 -215 128 -83 597 -374 633 -393 31 -16 65 -24 112 -26 66 -2 70
-1 134 41 59 39 105 89 137 148 9 17 223 366 489 800 37 61 88 144 113 185 25
41 117 192 205 335 246 401 321 524 332 543 19 33 218 357 240 392 13 19 123
199 245 400 123 201 239 391 259 423 20 31 41 65 46 75 6 9 34 57 64 106 91
150 111 248 67 334 -38 73 -88 125 -189 193 -257 174 -422 319 -470 414 -58
115 -47 204 48 395 18 36 50 95 73 131 52 86 74 150 73 217 0 59 -32 141 -72
184 -26 27 -212 148 -229 148 -5 0 -10 3 -10 8 0 4 -10 12 -23 18 -70 34 -326
198 -347 222 -14 15 -59 48 -100 72 -41 25 -76 48 -78 52 -2 5 -7 8 -12 8 -5
0 -82 46 -172 101 -89 56 -203 126 -253 156 -49 30 -106 65 -125 78 -19 12
-177 109 -350 215 -173 106 -349 214 -390 240 -104 65 -194 93 -274 82z m263
-811 c53 -32 267 -163 476 -291 209 -129 393 -240 408 -248 16 -8 31 -20 33
-27 3 -7 -69 -129 -159 -271 -327 -517 -379 -599 -382 -602 -2 -2 -36 18 -77
44 -40 26 -95 62 -123 79 -27 18 -81 52 -120 77 -38 25 -185 119 -325 208
-140 89 -288 183 -327 209 -40 25 -73 49 -73 53 0 7 35 61 355 548 77 118 151
232 164 253 27 45 22 46 150 -32z m1459 -843 c23 -12 28 -28 13 -43 -24 -26
-87 -251 -99 -350 -18 -158 12 -345 78 -491 67 -148 258 -368 410 -474 19 -13
37 -27 40 -30 3 -3 20 -16 38 -29 17 -12 32 -26 32 -31 0 -12 -44 -79 -52 -80
-4 0 -64 35 -133 78 -69 42 -141 86 -161 97 -19 11 -150 91 -292 178 -141 87
-266 164 -276 170 -11 7 -51 31 -88 55 -38 23 -72 42 -78 42 -24 0 -16 26 38
122 33 56 76 135 97 173 21 39 42 75 46 81 5 6 23 37 41 70 17 32 41 76 52 96
103 182 192 340 209 370 20 36 22 37 41 23 12 -8 31 -20 44 -27z m-2298 -505
c146 -95 193 -125 535 -343 217 -139 342 -218 383 -246 3 -2 -42 -73 -340
-534 -105 -162 -196 -304 -202 -314 -36 -64 -15 -72 -336 124 -162 99 -302
184 -310 189 -8 5 -64 40 -125 78 -60 37 -116 71 -125 75 -41 19 -185 117
-183 125 1 5 123 203 270 439 296 473 304 484 309 484 2 0 58 -35 124 -77z
m1710 -1107 c151 -92 291 -178 310 -191 19 -12 121 -75 227 -139 l191 -116
-270 -443 c-149 -243 -274 -446 -279 -451 -8 -9 -1049 622 -1049 635 0 7 97
168 155 259 22 33 182 295 239 390 35 59 41 69 104 168 51 81 54 83 75 70 12
-8 146 -90 297 -182z m-2221 -543 c259 -158 488 -298 508 -309 20 -12 39 -26
40 -31 3 -9 -99 -184 -192 -328 -21 -33 -50 -80 -64 -105 -14 -25 -40 -67 -56
-93 -17 -27 -75 -121 -129 -210 -54 -89 -100 -163 -101 -165 -2 -2 -67 37
-147 85 -757 462 -898 549 -898 558 0 6 16 34 35 64 19 29 35 55 35 57 0 2 12
23 27 47 62 97 98 156 268 435 112 182 184 291 192 288 6 -3 224 -135 482
-293z m1351 -844 c226 -138 312 -190 418 -254 137 -81 323 -199 328 -207 3 -5
0 -17 -8 -26 -8 -9 -61 -93 -118 -187 -147 -244 -218 -358 -227 -370 -4 -6
-17 -26 -27 -45 -11 -19 -34 -57 -51 -85 -18 -27 -49 -78 -69 -112 -20 -35
-42 -65 -47 -69 -6 -3 -27 5 -47 19 -31 21 -298 185 -384 236 -38 22 -612 373
-616 376 -3 3 206 350 282 470 18 28 85 137 150 242 98 161 121 191 134 184
10 -5 136 -82 282 -172z"/>
</g>
</svg>
